<?xml version="1.0" standalone="no"?><!DOCTYPE svg PUBLIC "-//W3C//DTD SVG 1.1//EN" "http://www.w3.org/Graphics/SVG/1.1/DTD/svg11.dtd"><svg t="1652353227759" class="icon" viewBox="0 0 1024 1024" version="1.1" xmlns="http://www.w3.org/2000/svg" p-id="43490" xmlns:xlink="http://www.w3.org/1999/xlink" width="200" height="200"><defs><style type="text/css"></style></defs><path d="M704 896H426.666667c-117.333333 0-213.333333-96-213.333334-213.333333V405.333333c0-117.333333 96-213.333333 213.333334-213.333333h277.333333c117.333333 0 213.333333 96 213.333333 213.333333v277.333334c0 117.333333-96 213.333333-213.333333 213.333333zM426.666667 256c-83.2 0-149.333333 66.133333-149.333334 149.333333v277.333334c0 83.2 66.133333 149.333333 149.333334 149.333333h277.333333c83.2 0 149.333333-66.133333 149.333333-149.333333V405.333333c0-83.2-66.133333-149.333333-149.333333-149.333333H426.666667z" fill="#1afa29" p-id="43491"></path><path d="M661.333333 576h-192c-17.066667 0-32-14.933333-32-32S452.266667 512 469.333333 512h192c17.066667 0 32 14.933333 32 32S678.4 576 661.333333 576z" fill="#1afa29" p-id="43492"></path><path d="M565.333333 672c-17.066667 0-32-14.933333-32-32v-192c0-17.066667 14.933333-32 32-32s32 14.933333 32 32v192c0 17.066667-14.933333 32-32 32z" fill="#1afa29" p-id="43493"></path><path d="M247.466667 706.133333C200.533333 680.533333 170.666667 631.466667 170.666667 576V298.666667c0-83.2 66.133333-149.333333 149.333333-149.333334h277.333333c55.466667 0 104.533333 29.866667 130.133334 76.8 29.866667 4.266667 55.466667 14.933333 78.933333 29.866667-19.2-98.133333-106.666667-170.666667-209.066667-170.666667H320C202.666667 85.333333 106.666667 181.333333 106.666667 298.666667v277.333333c0 102.4 72.533333 189.866667 170.666666 209.066667-14.933333-23.466667-25.6-49.066667-29.866666-78.933334z" fill="#1afa29" p-id="43494"></path></svg>