<?xml version="1.0" encoding="utf-8"?>
<!-- Svg Vector Icons : http://www.onlinewebfonts.com/icon -->
<!DOCTYPE svg PUBLIC "-//W3C//DTD SVG 1.1//EN" "http://www.w3.org/Graphics/SVG/1.1/DTD/svg11.dtd">
<svg version="1.1" xmlns="http://www.w3.org/2000/svg" xmlns:xlink="http://www.w3.org/1999/xlink" x="0px" y="0px" viewBox="0 0 1000 1000" enable-background="new 0 0 1000 1000" xml:space="preserve">
<metadata> Svg Vector Icons : http://www.onlinewebfonts.com/icon </metadata>
<g><g transform="translate(0.000000,511.000000) scale(0.100000,-0.100000)"><path d="M6436.9,4981.6c-119.6-42.6-222.9-119.6-354.6-257.4c-291.8-304-468.2-670.8-978.9-2022.5c-70.9-184.4-235.1-557.3-366.8-830.9c-364.8-753.9-518.8-1216-697.1-2059l-66.9-322.2l-237.1-395.2c-285.8-474.2-567.5-1031.5-656.6-1301.1c-117.5-354.7-125.7-626.2-26.3-822.8l40.5-79l-216.8-26.3c-743.8-87.1-1126.8-338.4-1126.8-739.7c0-468.1,490.4-727.6,1609.1-851.2c757.9-85.1,2612.3-85.1,2774.4-2c123.6,64.8,174.3,216.8,113.5,344.5c-70.9,150-24.3,143.9-1124.8,137.8c-1171.4-8.1-1728.7,24.3-2249.5,129.7c-299.9,60.8-587.7,180.4-587.7,245.2c0,40.5,210.8,127.7,407.4,168.2c334.4,66.9,664.7,81.1,1398.4,58.8c719.4-20.3,2908.2-34.5,2920.3-18.2c18.2,22.3-42.6,749.8-72.9,897.8c-113.5,529-310.1,861.3-547.2,930.2c-107.4,30.4-133.8,50.7-133.8,109.4c0,58.8,62.8,95.2,135.8,77c170.2-40.5,344.5-182.4,472.2-383l64.8-101.3l-12.1,101.3c-26.4,227-79.1,1262.6-66.9,1293c14.2,38.5,125.7,48.6,145.9,12.2c8.1-10.1,44.6-504.6,81.1-1098.4c38.5-593.8,79-1155.2,89.2-1250.4c12.1-95.2,26.3-259.4,34.4-364.8c8.1-105.4,24.3-198.6,36.5-206.7c58.7-40.5,660.7-4.1,705.2,40.5c34.5,34.5-22.3,241.2-93.2,344.5c-58.8,87.1-66.9,117.5-89.2,358.7c-44.6,447.9-160.1,1331.5-328.3,2502.9C7286,632.4,7188.7,1390.4,7188.7,1516c0,46.6,6.1,50.7,99.3,50.7c417.5,0,952.5,431.7,962.6,774.2c0,62.8-12.2,89.2-83.1,160.1c-93.2,91.2-115.5,147.9-229,571.5c-38.5,137.8-89.2,273.6-121.6,324.3c-107.4,158.1-360.8,312.1-646.5,391.1c-72.9,20.3-123.6,46.6-123.6,62.8c0,48.6-227,660.7-314.1,847.1c-77,168.2-176.3,316.2-208.8,312.1C6515.9,5009.9,6477.4,4997.8,6436.9,4981.6z M7115.8,3062.3c48.6-52.7,54.7-75,44.6-135.8c-14.2-97.3-93.2-164.2-192.5-164.2c-200.6,0-259.4,275.6-77,356.7C6975.9,3155.6,7044.9,3139.4,7115.8,3062.3z M6759.1,2391.5c34.5-26.3,22.3-137.8-16.2-158.1c-16.2-8.1-115.5-24.3-218.9-34.4c-206.7-24.3-350.6-79.1-512.7-198.6c-77-56.7-111.5-70.9-152-60.8c-54.7,14.2-89.2,79-73,137.8c16.2,68.9,287.8,237.1,474.2,297.9C6434.8,2432.1,6696.3,2440.2,6759.1,2391.5z M6957.7,2002.4c30.4-46.6,30.4-54.7,0-101.3c-18.2-28.4-58.8-54.7-89.2-62.8c-194.5-42.6-372.9-152-514.8-314.1c-111.5-129.7-166.2-147.9-229-79c-52.7,58.8-26.4,123.6,109.4,267.5c129.7,139.8,291.8,247.2,456,304C6840.1,2067.3,6917.2,2063.2,6957.7,2002.4z"/><path d="M7176.6,4892.4c-42.6-32.4-113.5-93.2-156.1-137.8l-75-79l147.9-330.3l148-330.3l137.8-56.7c75-32.4,149.9-68.9,166.2-83.1c16.2-12.2,34.4-20.3,38.5-14.2c6.1,6.1-18.3,150-52.7,322.2c-115.5,573.5-178.4,768.1-249.3,768.1C7267.8,4951.2,7219.1,4924.8,7176.6,4892.4z"/></g></g>
</svg>