<?xml version="1.0" standalone="no"?><!DOCTYPE svg PUBLIC "-//W3C//DTD SVG 1.1//EN" "http://www.w3.org/Graphics/SVG/1.1/DTD/svg11.dtd"><svg t="1654872815573" class="icon" viewBox="0 0 1024 1024" version="1.1" xmlns="http://www.w3.org/2000/svg" p-id="2521" xmlns:xlink="http://www.w3.org/1999/xlink" width="200" height="200"><defs><style type="text/css"></style></defs><path d="M840.997 610a35.004 35.004 0 0 1 30.029 17.01l83.997 140a35.001 35.001 0 0 1 0 35.98l-83.997 140A35.004 35.004 0 0 1 840.997 960H673.003a35.004 35.004 0 0 1-30.029-17.01l-83.997-140a35.001 35.001 0 0 1 0-35.98l83.997-140A35.004 35.004 0 0 1 673.003 610h167.994z m-19.81 70H692.813l-62.997 105 62.997 105h128.376l62.997-105-62.997-105zM757 722c34.793 0 62.998 28.206 62.998 63S791.793 848 757 848s-62.998-28.206-62.998-63 28.205-63 62.998-63z" p-id="2522" fill="#bfbfbf"></path><path d="M498.394 839.04c-19.939-33.26-19.939-74.82 0-108.08l83.887-140c19.021-31.543 53.1-50.861 89.898-50.96H805V106c0-23.196-18.779-42-41.943-42H105.943C82.78 64 64 82.804 64 106v812c0 23.196 18.779 42 41.943 42h464.943l-72.492-120.96zM266.726 260h335.548c19.303 0 34.952 15.67 34.952 35s-15.649 35-34.952 35H266.726c-19.303 0-34.952-15.67-34.952-35s15.649-35 34.952-35z m83.887 490h-83.887c-19.304 0-34.952-15.67-34.952-35s15.648-35 34.952-35h83.887c19.304 0 34.953 15.67 34.953 35s-15.649 35-34.953 35zM434.5 540H266.726c-19.304 0-34.952-15.67-34.952-35s15.648-35 34.952-35H434.5c19.304 0 34.953 15.67 34.953 35s-15.65 35-34.953 35z" p-id="2523" fill="#bfbfbf"></path></svg>