<?xml version="1.0" encoding="utf-8"?>
<!-- Svg Vector Icons : http://www.onlinewebfonts.com/icon -->
<!DOCTYPE svg PUBLIC "-//W3C//DTD SVG 1.1//EN" "http://www.w3.org/Graphics/SVG/1.1/DTD/svg11.dtd">
<svg version="1.1" xmlns="http://www.w3.org/2000/svg" xmlns:xlink="http://www.w3.org/1999/xlink" x="0px" y="0px" viewBox="0 0 1000 1000" enable-background="new 0 0 1000 1000" xml:space="preserve">
<metadata> Svg Vector Icons : http://www.onlinewebfonts.com/icon </metadata>
<g><g transform="translate(0.000000,511.000000) scale(0.100000,-0.100000)"><path d="M6338.1,4472.2c-154.1-76-620.5-649.3-620.5-762.3c0-88.4,86.3-217.8,265.1-394.5c281.5-279.4,622.6-513.7,750-513.7c170.5,0,443.8,277.4,443.8,452c0,84.2-378.1,863-505.5,1039.7c-86.3,123.3-191.1,213.7-244.5,213.7C6416.2,4507.1,6375.1,4490.7,6338.1,4472.2z"/><path d="M7137.4,3940c269.2-540.4,300-630.8,267.1-776.7c-65.7-291.8-404.8-593.8-667.8-597.9c-197.2,0-528,205.5-889.7,550.7l-174.6,168.5l-49.3-61.6c-26.7-34.9-187-293.8-357.5-579.4C4801.2,1868.8,4608,1610,4186.8,1203.1c-125.3-123.3-261-277.4-322.6-369.8c-137.7-211.6-374-698.6-528.1-1101.3c-263-673.9-634.9-1871.8-867.1-2802.6l-90.4-355.5l-113,12.3c-285.6,32.9-546.6,158.2-713,347.3c-158.2,180.8-293.8,495.2-355.5,823.9c-137.7,752,30.8,2151.3,402.7,3357.4c47.3,150,65.7,240.4,53.4,252.7c-51.4,51.4-318.5-154.1-563-429.4C849.9,666.8,671.2,381.2,589,128.5l-39-111l-14.4,135.6c-8.2,76-26.7,164.4-39,195.2c-20.5,57.5-22.6,57.5-51.4,20.5c-37-51.4-100.7-219.9-164.4-443.8C106.1-672.8,102-1381.7,270.5-1899.5c30.8-92.5,51.4-168.5,45.2-168.5c-8.2,2.1-45.2,28.8-84.2,61.6c-139.7,121.2-168.5,69.9-84.2-156.2C360.9-2744,722.5-3323.4,1098.6-3683c343.1-328.8,721.2-526,1115.7-583.5c90.4-12.3,1150.6-20.5,2812.9-20.5h2669.1l-12.3,106.8c-8.2,61.6-37,145.9-69.9,199.3c-117.1,189-318.5,269.2-673.9,269.2h-205.5l88.3,43.1c113,57.6,217.8,180.8,273.3,324.7c63.7,162.3,61.6,439.7-2,604.1c-102.7,269.2-421.2,634.9-750,867.1c-197.2,137.7-197.2,137.7-71.9,100.7c291.8-84.3,597.9-271.2,745.9-454.1l78.1-96.6l-12.3,102.7c-22.6,203.4-51.4,528.1-51.4,591.8c0,45.2,78.1-111,258.9-521.9c234.2-534.2,277.4-653.4,495.2-1360.2l238.3-776.7h606.1h606.1l-12.3,84.2c-24.7,178.8-191.1,304.1-478.8,361.6l-164.4,30.8l-314.4,1278C7846.2-816.7,7776.4-455,7727.1,239.4c-39,542.5,10.3,904.1,154.1,1117.8c51.4,74,76,96.6,106.8,88.3c22.6-6.2,92.5-10.3,154.1-10.3c100.7,0,152.1,20.5,452,168.5c234.2,117.1,417.1,193.1,595.9,244.5c141.8,41.1,291.8,92.5,332.9,113c332.9,170.5,450,544.5,332.9,1066.4c-74,324.6-92.5,341.1-421.2,318.5c-499.3-30.8-741.8,65.8-889.7,355.5c-158.2,310.3-482.9,567.1-813.7,641.1c-61.6,14.4-271.2,28.8-464.4,34.9l-351.4,12.3L7137.4,3940z M8078.5,3601c67.8-24.7,125.3-106.8,125.3-182.9c0-67.8-108.9-164.4-184.9-164.4c-76,0-184.9,96.6-184.9,162.3c0,96.6,53.4,158.2,176.7,207.5C8012.7,3623.6,8041.5,3613.3,8078.5,3601z"/></g></g>
</svg>