<?xml version="1.0" standalone="no"?><!DOCTYPE svg PUBLIC "-//W3C//DTD SVG 1.1//EN" "http://www.w3.org/Graphics/SVG/1.1/DTD/svg11.dtd"><svg t="1652423760450" class="icon" viewBox="0 0 1024 1024" version="1.1" xmlns="http://www.w3.org/2000/svg" p-id="8920" xmlns:xlink="http://www.w3.org/1999/xlink" width="200" height="200"><defs><style type="text/css"></style></defs><path d="M512 1024c-3.413333 0-10.24 0-13.653333-3.413333l-443.733334-443.733334c-3.413333-3.413333-6.826667-13.653333-3.413333-17.066666 3.413333-10.24 10.24-13.653333 17.066667-13.653334h256V17.066667c0-10.24 6.826667-17.066667 17.066666-17.066667h341.333334c10.24 0 17.066667 6.826667 17.066666 17.066667V546.133333H955.733333c6.826667 0 13.653333 3.413333 17.066667 10.24 3.413333 6.826667 0 13.653333-3.413333 17.066667l-443.733334 443.733333c-3.413333 6.826667-10.24 6.826667-13.653333 6.826667zM109.226667 580.266667L512 983.04 914.773333 580.266667H682.666667c-10.24 0-17.066667-6.826667-17.066667-17.066667V34.133333h-307.2v529.066667c0 10.24-6.826667 17.066667-17.066667 17.066667H109.226667z" fill="#231F20" p-id="8921"></path></svg>