<?xml version="1.0" encoding="utf-8"?>
<!-- Svg Vector Icons : http://www.onlinewebfonts.com/icon -->
<!DOCTYPE svg PUBLIC "-//W3C//DTD SVG 1.1//EN" "http://www.w3.org/Graphics/SVG/1.1/DTD/svg11.dtd">
<svg version="1.1" xmlns="http://www.w3.org/2000/svg" xmlns:xlink="http://www.w3.org/1999/xlink" x="0px" y="0px" viewBox="0 0 1000 1000" enable-background="new 0 0 1000 1000" xml:space="preserve">
<metadata> Svg Vector Icons : http://www.onlinewebfonts.com/icon </metadata>
<g><g transform="translate(0.000000,511.000000) scale(0.100000,-0.100000)"><path d="M5743.8,4959.4c-102.9-102.9-151.1-229.9-151.1-407.2c-2.2-214.5,41.6-295.5,306.5-571.4c216.7-227.7,282.4-330.6,306.5-479.4l15.3-89.8l-85.4,37.2c-210.2,91.9-446.6,166.4-569.2,177.3c-140.1,13.1-302.1-24.1-289-63.5c4.4-13.1,63.5-39.4,131.4-61.3c142.3-43.8,293.3-127,354.6-194.8c39.4-43.8,39.4-43.8-61.3-70.1c-116-28.4-304.3-162-391.8-278c-81-107.3-133.6-291.2-116-413.8c13.2-107.3,94.2-275.8,120.4-260.5c11,6.6,24.1,63.5,32.8,124.8c17.5,129.2,72.3,249.6,148.9,319.6c89.8,83.2,343.7,153.2,317.4,87.6c-32.9-87.6-59.1-280.2-41.6-313.1c17.5-30.6,28.5-26.3,94.1,30.7c172.9,148.9,330.6,186.1,477.3,109.5c120.4-61.3,177.3-135.7,192.6-251.8c15.3-113.8-39.4-232-135.7-291.2s-148.9-54.7-236.4,21.9c-94.1,81-107.3,83.2-78.8,2.2c56.9-162,194.8-262.7,527.6-383.1c113.8-41.6,170.8-111.7,186.1-232.1c21.9-166.4-153.2-232.1-315.2-120.4c-43.8,28.4-83.2,50.3-87.6,46s13.1-65.7,39.4-135.7c67.9-179.5,214.6-321.8,383.1-372.2c157.6-46,352.5-32.8,501.3,32.8c129.2,56.9,111.6,85.4-65.7,109.5c-159.8,21.9-192.6,61.3-179.5,210.2c6.6,61.3,21.9,148.9,37.2,199.2c37.2,116,17.5,181.7-96.3,321.8c-142.3,177.3-170.8,249.6-131.3,352.5c10.9,30.6,19.7,30.6,70,4.4c32.8-17.5,81-61.3,107.3-96.3c26.3-37.2,102.9-91.9,170.7-124.8c127-63.5,203.6-65.7,615.2-19.7c107.3,10.9,118.2,8.8,203.6-67.9c81-74.4,124.8-157.6,229.9-457.5c13.1-39.4,21.9-37.2,89.7,30.6c175.1,170.8,186.1,435.6,28.5,764c-52.5,109.5-113.8,186.1-264.9,328.4c-229.9,221.1-356.8,402.8-378.7,540.7c-6.6,54.7-30.7,120.4-52.6,146.7l-39.4,48.2l-65.7-48.2l-67.9-50.3l-74.4,87.6c-81,94.1-124.8,212.4-124.8,334.9c0,43.8-8.8,83.2-19.7,89.8c-10.9,6.6-63.5-26.3-118.2-74.4s-105.1-81-109.5-72.2c-4.4,10.9-21.9,52.5-35,96.3c-52.5,159.8-275.8,337.1-553.9,437.8c-96.3,35-201.4,78.8-234.2,94.1c-89.7,48.2-240.8,221.1-299.9,348.1c-59.1,129.2-65.7,218.9-21.9,380.9c28.5,109.5,28.5,111.6-17.5,124.8C5838,5020.7,5796.4,5011.9,5743.8,4959.4z M7039.8,3159.9c46-35,102.9-120.4,159.8-236.4c48.2-100.7,113.8-214.6,144.5-251.8c32.8-39.4,54.7-72.2,50.4-76.6c-46-41.6-254-122.6-310.9-122.6c-135.7,0-157.6,52.5-157.6,370c0,223.3-6.6,289-39.4,345.9l-37.2,72.2l59.1-24.1C6941.3,3223.4,7002.6,3188.4,7039.8,3159.9z M8160.7,2220.8c54.7-26.3,133.5-164.2,133.5-227.7c0-24.1-247.4,96.3-282.4,137.9c-26.2,30.6-24.1,41.6,8.8,78.8C8068.7,2262.3,8081.9,2262.3,8160.7,2220.8z"/><path d="M1733.3,3772.9c-48.2-21.9,10.9-94.1,142.3-177.3c289-181.7,442.2-356.8,442.2-505.7c0-41.6-28.5-168.6-65.7-282.4c-35-111.6-65.7-245.2-65.7-295.5v-94.1l-52.5,78.8c-65.7,96.3-216.7,199.2-376.5,260.5c-409.4,151.1-831.9,76.6-1007-181.7c-61.3-92-102.9-243-91.9-345.9l6.6-74.4l61.3,92c131.3,203.6,586.7,343.7,851.6,264.9c148.9-43.8,299.9-199.2,367.8-380.9l21.9-56.9l-102.9,61.3c-212.3,122.6-269.3,144.5-321.8,131.3c-70.1-17.5-363.4-251.7-437.8-345.9c-129.1-170.7-155.4-267.1-155.4-575.7c0-293.3,37.2-477.2,111.6-536.3c26.3-24.1,30.7-10.9,30.7,78.8c2.2,584.5,422.5,1061.7,781.5,891c89.8-41.6,181.7-172.9,249.6-356.8c24.1-65.7,83.2-170.8,131.4-232.1c133.5-175.1,109.5-251.8-98.5-302.1l-63.5-15.3l52.5-54.7c116-124.8,264.9-153.3,341.5-67.9c105.1,116,124.8,234.2,63.5,407.2c-35,94.1-46,221.1-24.1,221.1c41.6,0,144.5-74.4,177.3-127c65.7-113.8,162-142.3,162-48.2c0,21.9,19.7,122.6,43.8,223.3c52.5,223.3,52.5,221.1,2.2,247.4c-238.6,120.4-352.4,221.1-352.4,310.9c0,21.9-19.7,70-43.8,105.1c-61.3,94.1-54.7,159.8,41.6,389.7c111.7,260.5,142.3,385.3,127,527.6c-21.9,210.2-142.3,387.5-370,542.9C2083.5,3705,1814.3,3807.9,1733.3,3772.9z"/><path d="M4353.7,3326.3c-157.6-19.7-352.5-85.4-365.6-122.6c-4.4-13.1,21.9-37.2,59.1-52.5c35-15.3,65.7-32.8,65.7-41.6s-96.3-61.3-212.4-120.4c-431.3-210.2-667.7-376.5-742.1-518.8l-30.6-61.3l100.7-6.6l100.7-6.6l-111.7-127c-61.3-67.9-140.1-168.6-177.3-223.3c-61.3-87.6-63.5-98.5-26.3-98.5c24.1,0,83.2,13.1,131.3,30.6l87.6,30.6l-124.8-245.2c-122.6-238.6-203.6-477.2-243-729c-10.9-67.9-15.3-131.3-8.8-142.3c6.6-8.8,37.2,2.2,70.1,28.5l59.1,46l6.6-52.5c32.8-278,140.1-615.1,179.5-571.4c10.9,8.8,35,105.1,54.7,210.1c52.5,293.4,102.9,374.4,131.3,218.9c43.8-243,221.1-461.9,284.6-354.6c8.7,13.1,61.3-21.9,129.1-85.4c100.7-96.3,260.5-179.5,289-151.1c6.6,6.6-4.4,48.2-24.1,91.9c-41.6,100.7-35,111.7,35,59.1c144.5-113.8,372.2-186.1,772.8-245.2c372.2-56.9,516.7-109.5,634.9-227.7c131.3-129.2,192.7-275.9,203.6-472.9c8.8-144.5,4.4-172.9-41.6-240.8c-67.9-102.9-260.5-197-429.1-212.4c-113.8-10.9-385.3,30.7-501.3,74.4c-50.4,19.7-30.7-52.5,48.2-168.6c43.8-63.5,74.4-118.2,72.2-120.4c-56.9-48.2-190.5-85.4-326.2-94.1c-203.6-10.9-413.7,30.7-672.1,137.9c-175.1,70-181.7,72.2-166.4,26.3c6.6-26.3,37.2-85.4,67.9-133.5l54.7-85.4l-107.3,15.3c-56.9,8.8-218.9,43.8-356.8,78.8c-337.1,83.2-470.7,98.5-626.1,65.7c-247.4-50.4-256.1-87.6-30.6-133.5c65.7-13.1,144.5-37.2,175.1-52.5l54.7-28.5l-65.7-15.3c-472.9-107.2-691.8-203.6-901.9-391.8l-124.8-116l78.8-26.3l78.8-26.3L1834-2183.9c-159.8-153.2-260.5-343.7-273.6-523.2c-6.6-72.2-2.2-142.3,8.8-159.8c28.5-39.4,91.9-15.3,107.3,39.4c6.6,24.1,24.1,48.2,39.4,54.7c24.1,8.8,30.6-65.7,37.2-365.6c6.6-370,8.7-378.7,78.8-527.6c85.4-183.9,278-525.4,348.1-621.7c50.3-65.7,153.2-129.2,175.1-105.1c4.4,4.4-6.6,46-24.1,89.7c-19.7,46-35,107.3-35,135.7c0,48.2,8.7,43.8,83.2-52.5c190.5-238.6,634.9-608.6,678.6-567c4.4,4.4-54.7,85.4-131.3,179.5c-170.8,212.4-363.4,501.3-451,678.6c-96.3,190.5-227.7,648-238.6,829.7c-19.7,282.4,98.5,619.5,280.2,801.2c197,197,527.6,365.6,910.7,461.9c172.9,46,236.4,50.3,597.6,43.8c223.3-4.4,459.7-8.8,525.4-10.9l118.2-4.4l67.9,120.4c120.4,216.7,402.8,365.6,746.5,387.5c148.9,10.9,205.8,4.4,378.7-48.2c111.7-32.8,212.4-50.3,221.1-41.6c54.7,56.9,116,319.6,127,547.3c13.2,299.9-28.4,507.9-148.9,748.7C5866.4,294.3,5608.1,480.4,4901,743.1c-588.9,216.7-845,400.6-1000.4,715.9c-78.8,157.6-83.2,181.7-83.2,365.6c0,179.5,6.6,214.6,70.1,348.1c91.9,192.7,267.1,367.8,453.1,455.4c234.2,109.5,240.8,81,35-153.2c-240.8-273.6-293.4-389.7-295.5-648c0-177.3,6.6-212.4,70.1-343.7c78.8-166.4,214.5-324,356.8-415.9c54.7-35,269.3-118.2,477.2-183.9c208-65.7,477.2-170.8,602-232.1c486-245.2,766.2-672.1,847.2-1302.5c30.7-243,2.2-527.6-72.2-735.6l-50.3-137.9l61.3-83.2c32.8-48.2,72.2-124.8,83.2-175.1c48.2-186.1,43.8-186.1,190.5-26.3c218.9,234.2,365.6,595.5,394.1,969.8c13.1,186.1,39.4,216.7,63.5,76.6c6.6-43.8,28.5-105.1,48.2-135.7l35-54.7l17.5,65.7c32.8,116,46,440,24.1,505.7c-13.1,35-48.2,129.2-78.8,210.2l-56.9,148.9l81-35c43.8-19.7,109.5-41.6,146.7-48.2l63.5-10.9l-39.4,63.5c-172.9,271.4-359,437.8-737.7,656.7c-137.9,78.8-258.3,153.2-271.5,164.2c-11,10.9,21.9,19.7,87.6,19.7c102.9,0,105.1,2.2,67.9,41.6c-56.9,63.5-286.8,168.6-505.7,232.1c-148.9,43.8-297.7,65.7-602,87.6c-547.3,41.6-689.6,89.8-904.1,308.7c-291.2,293.3-267.1,586.7,72.2,930.4c120.4,122.6,164.2,151,273.6,183.9c225.5,63.5,232.1,67.9,295.5,269.3c43.8,133.5,78.8,201.4,140.1,264.9l83.2,85.4l-177.3,56.9c-166.4,52.5-488.2,102.9-615.2,98.5C4520.1,3343.8,4432.5,3335,4353.7,3326.3z"/><path d="M7385.7,1662.5c-6.6-10.9,32.8-52.5,89.7-92c269.3-186.1,308.7-256.1,400.6-700.5C7998.7,279,8110.3,64.4,8342.4-31.9c116-50.4,334.9-43.8,455.3,10.9c109.5,48.2,218.9,144.5,218.9,188.3c0,43.8-76.6,32.8-122.6-17.5C8786.8,31.6,8631.4,9.7,8504.4,97.3c-43.8,30.7-89.7,54.7-100.7,54.7c-37.2,0-148.9,172.9-216.7,334.9c-35,87.6-102.9,289-151,446.6c-153.2,507.9-334.9,750.9-560.4,750.9C7433.9,1684.4,7392.3,1675.7,7385.7,1662.5z"/><path d="M8016.2-975.4c-131.3-37.2-289-113.8-398.4-194.8c-41.6-30.7-102.9-56.9-133.5-56.9c-118.2,0-192.6-116-232-365.6c-17.5-118.2,15.3-172.9,164.2-267.1c59.1-39.4,116-89.8,122.6-109.5c26.3-85.4-61.3-212.4-227.7-332.8c-131.3-94.1-188.3-102.9-330.6-52.5c-127,46-170.8,41.6-253.9-21.9c-39.4-30.6-91.9-54.7-116-54.7c-67.9,0-194.8,140.1-221.1,245.2c-137.9,532-348.1,704.9-853.8,707.1c-221.1,0-236.4-2.2-367.8-74.4c-173-94.2-374.4-308.7-468.5-501.3c-116-236.4-105.1-481.6,26.3-551.7c39.4-21.9,48.2-15.3,76.6,50.3c15.3,39.4,43.8,85.4,61.3,100.7c26.3,21.9,37.2,2.2,67.9-127c32.8-146.7,87.6-280.2,148.9-352.5c32.8-41.6,129.2-109.5,153.3-109.5c8.7,0,8.7,70.1,2.2,153.2c-10.9,120.4-4.4,172.9,26.3,240.8c21.9,48.2,46,87.6,54.7,87.6c8.8,0,32.8-43.8,52.5-96.3c54.7-142.3,89.8-144.5,229.9-4.4c192.7,190.5,271.5,190.5,492.6,2.2c234.2-199.2,328.4-221.1,588.9-137.9c151.1,48.2,151.1,48.2,183.9,6.6c19.7-28.4,26.3-67.9,19.7-109.5c-41.6-214.5-39.4-221.1,15.3-330.6c59.1-116,227.7-289,341.5-348.1c39.4-19.7,76.6-32.8,81-26.3c4.4,4.4-39.4,70.1-100.7,144.5c-170.8,214.5-146.7,328.4,89.7,415.9c81,30.6,100.7,50.3,127,127c26.3,70,48.1,94.1,98.5,109.5c39.4,10.9,78.8,43.8,94.1,78.8c15.3,32.8,41.6,85.4,56.9,118.2c41.6,92,157.6,159.8,271.5,159.8c113.8,0,148.9-17.5,302.1-142.3c65.7-52.5,155.4-102.9,212.4-116c175.1-43.8,302.1-229.9,326.2-470.7c17.5-181.7,43.8-218.9,100.7-133.6c30.6,48.2,39.4,102.9,39.4,249.6c0,236.4-28.5,313-177.3,492.6c-83.2,105.1-118.2,164.2-118.2,210.2c0,157.6-102.9,218.9-334.9,201.4l-146.7-13.1l35,85.4c59.1,144.5,120.4,227.7,164.2,227.7c24.1,0,98.5,19.7,166.4,43.8c70,24.1,151,43.8,181.7,43.8c135.7-2.2,378.7-170.8,490.4-341.5c32.8-52.5,70-96.3,78.8-96.3c11,0,35-6.6,54.7-13.1c70.1-26.3-275.8,470.7-411.6,595.5c-192.6,172.9-337.1,236.4-532,236.4c-190.5,0-258.3-37.2-317.4-179.5c-24.1-56.9-63.5-144.5-89.8-197l-46-94.1l-129.2,137.9c-116,124.8-124.8,144.5-113.8,214.5c17.5,109.5,83.2,225.5,170.8,302.1c76.6,67.9,199.2,111.7,440,157.6c72.2,13.1,151.1,30.7,173,37.2c41.6,10.9,41.6,13.1,2.2,41.6C8425.6-933.8,8167.3-936,8016.2-975.4z"/></g></g>
</svg>