<?xml version="1.0" standalone="no"?><!DOCTYPE svg PUBLIC "-//W3C//DTD SVG 1.1//EN" "http://www.w3.org/Graphics/SVG/1.1/DTD/svg11.dtd"><svg t="1652353654843" class="icon" viewBox="0 0 1024 1024" version="1.1" xmlns="http://www.w3.org/2000/svg" p-id="44375" xmlns:xlink="http://www.w3.org/1999/xlink" width="200" height="200"><defs><style type="text/css"></style></defs><path d="M460.8 921.6H1024V1024H460.8zM467.2 851.2l544-544c6.4-12.8 12.8-25.6 12.8-38.4s-6.4-25.6-12.8-38.4L793.6 12.8c-19.2-19.2-51.2-19.2-70.4 0L172.8 556.8c0 6.4-6.4 12.8-6.4 19.2L57.6 832c-6.4 19.2-6.4 38.4 12.8 57.6l-70.4 64L70.4 1024l70.4-70.4c12.8 12.8 25.6 12.8 38.4 12.8 6.4 0 12.8 0 19.2-6.4L448 857.6c6.4 0 12.8-6.4 19.2-6.4z m-281.6 6.4l-25.6-25.6 64-153.6 108.8 108.8-147.2 70.4z m243.2-115.2l-70.4-70.4-76.8-76.8 473.6-473.6 147.2 147.2-473.6 473.6z" fill="#f4ea2a" p-id="44376"></path></svg>