<?xml version="1.0" standalone="no"?><!DOCTYPE svg PUBLIC "-//W3C//DTD SVG 1.1//EN" "http://www.w3.org/Graphics/SVG/1.1/DTD/svg11.dtd"><svg t="1654088286631" class="icon" viewBox="0 0 1024 1024" version="1.1" xmlns="http://www.w3.org/2000/svg" p-id="11701" xmlns:xlink="http://www.w3.org/1999/xlink" width="200" height="200"><defs><style type="text/css"></style></defs><path d="M309.632 389.632L504.149333 277.333333a15.744 15.744 0 0 1 15.701334 0l194.517333 112.298667a15.744 15.744 0 0 1 7.850667 13.653333v224.554667a15.786667 15.786667 0 0 1-7.850667 13.610667l-194.517333 112.298666a15.744 15.744 0 0 1-15.701334 0l-194.517333-112.298666a15.744 15.744 0 0 1-7.850667-13.653334V403.285333a15.786667 15.786667 0 0 1 7.850667-13.653333m708.053333 102.314667l-232.362666-404.266667c-8.448-14.634667-24.064-25.429333-40.96-25.429333H279.68c-16.896 0-32.512 10.794667-40.96 25.429333L6.357333 491.050667a48.085333 48.085333 0 0 0 0 47.658666l232.405334 400.981334c8.405333 14.592 24.021333 22.058667 40.917333 22.058666h464.768c16.853333 0 32.426667-7.253333 40.917333-21.845333l232.362667-401.621333a45.610667 45.610667 0 0 0 0-46.336m-192.426667 194.389333a17.066667 17.066667 0 0 1-8.704 14.421333L520.533333 871.509333a16.853333 16.853333 0 0 1-16.725333 0l-296.234667-170.752a17.066667 17.066667 0 0 1-8.746666-14.421333V344.746667c0-5.973333 3.541333-11.477333 8.704-14.421334L503.466667 159.573333c5.12-2.986667 11.605333-2.986667 16.725333 0l296.234667 170.794667a17.066667 17.066667 0 0 1 8.789333 14.421333z" p-id="11702"></path></svg>