<?xml version="1.0" standalone="no"?><!DOCTYPE svg PUBLIC "-//W3C//DTD SVG 1.1//EN" "http://www.w3.org/Graphics/SVG/1.1/DTD/svg11.dtd"><svg t="1653991400819" class="icon" viewBox="0 0 1028 1024" version="1.1" xmlns="http://www.w3.org/2000/svg" p-id="1272" xmlns:xlink="http://www.w3.org/1999/xlink" width="200.78125" height="200"><defs><style type="text/css"></style></defs><path d="M888.07049 858.261c0.255-2.052 0.845-6.166 1.815-12.043 1.642-9.94 3.757-21.05 6.39-33.033 7.516-34.193 17.635-68.356 30.65-100.033a447.318 447.318 0 0 1 7.584-17.419c7.656-16.59 18.941-34.562 33.538-54.227 6.412-8.639 49.378-60.718 52.297-69.476 35.181-105.544-61.78-202.506-189.577-151.387a24.242 24.242 0 0 0-10.024 7.487L638.92449 658.433l19.028-9.22h-290.91c-13.388 0-24.242 10.853-24.242 24.242 0 13.388 10.854 24.242 24.243 24.242h290.909c7.42 0 14.43-3.397 19.027-9.22l181.818-230.304-10.024 7.487c88.654-35.461 147.969 23.854 125.574 91.038 0.52-1.557-4.607 5.158-12.207 14.37-16.885 20.465-23.307 28.448-33.025 41.54-16.419 22.12-29.37 42.744-38.63 62.81a495.754 495.754 0 0 0-8.407 19.308c-14.188 34.532-25.081 71.307-33.157 108.051-2.823 12.846-5.097 24.789-6.872 35.54-1.08 6.537-1.762 11.29-2.094 13.967-1.65 13.287 7.782 25.396 21.069 27.046 13.286 1.65 25.395-7.782 27.046-21.069zM187.67449 852.284c-0.333-2.676-1.014-7.43-2.094-13.967-1.776-10.751-4.05-22.694-6.873-35.54-8.075-36.744-18.968-73.519-33.156-108.05a495.75 495.75 0 0 0-8.408-19.309c-9.26-20.066-22.21-40.69-38.63-62.81-9.717-13.092-16.14-21.075-33.024-41.54-7.6-9.212-12.727-15.927-12.208-14.37-22.394-67.184 36.92-126.5 125.574-91.038l-10.024-7.487 106.317 134.668c8.296 10.509 23.54 12.302 34.049 4.006 10.508-8.296 12.302-23.54 4.006-34.05L206.88649 428.13a24.242 24.242 0 0 0-10.024-7.487C69.06549 369.524-27.89651 466.486 7.28449 572.03c2.92 8.758 45.886 60.837 52.297 69.476 14.597 19.665 25.882 37.636 33.538 54.227a447.316 447.316 0 0 1 7.585 17.42c13.014 31.676 23.134 65.839 30.649 100.032 2.633 11.982 4.748 23.094 6.39 33.033 0.97 5.877 1.56 9.99 1.815 12.043 1.651 13.287 13.76 22.72 27.047 21.07 13.286-1.651 22.719-13.76 21.069-27.047z" p-id="1273" fill="#ffffff"></path><path d="M197.34649 964.364v-96.97l-24.243 24.242H864.12049l-24.243-24.242v96.97c0 13.388 10.854 24.242 24.243 24.242 13.388 0 24.242-10.854 24.242-24.242v-96.97c0-13.389-10.854-24.242-24.242-24.242H173.10349c-13.388 0-24.242 10.853-24.242 24.242v96.97c0 13.388 10.854 24.242 24.242 24.242 13.39 0 24.243-10.854 24.243-24.242zM173.10349 418.91V249.27c0-40.194 32.59-72.785 72.773-72.785h509c40.192 0 72.773 32.585 72.773 72.785v169.64h48.485V249.27c0-66.977-54.288-121.27-121.258-121.27h-509c-66.961 0-121.258 54.299-121.258 121.27v169.64h48.485z" p-id="1274" fill="#ffffff"></path></svg>