<?xml version="1.0" standalone="no"?><!DOCTYPE svg PUBLIC "-//W3C//DTD SVG 1.1//EN" "http://www.w3.org/Graphics/SVG/1.1/DTD/svg11.dtd"><svg t="1654142406489" class="icon" viewBox="0 0 1024 1024" version="1.1" xmlns="http://www.w3.org/2000/svg" p-id="8443" xmlns:xlink="http://www.w3.org/1999/xlink" width="200" height="200"><defs><style type="text/css"></style></defs><path d="M853.333333 955.733333H170.666667c-66.030933 0-102.4-36.369067-102.4-102.4V170.666667c0-66.030933 36.369067-102.4 102.4-102.4h682.666666c66.030933 0 102.4 36.369067 102.4 102.4v682.666666c0 66.030933-36.369067 102.4-102.4 102.4zM102.4 775.0656V853.333333c0 47.223467 21.0432 68.266667 68.266667 68.266667h682.666666c47.223467 0 68.266667-21.0432 68.266667-68.266667v-78.267733l-324.266667-324.266667L450.798933 597.333333l73.2672 73.2672a17.0496 17.0496 0 1 1-24.132266 24.132267L341.333333 536.132267l-238.933333 238.933333zM597.333333 409.6c4.369067 0 8.738133 1.672533 12.066134 5.000533L921.6 726.801067V170.666667c0-47.223467-21.0432-68.266667-68.266667-68.266667H170.666667c-47.223467 0-68.266667 21.0432-68.266667 68.266667v556.1344l226.8672-226.8672a17.0496 17.0496 0 0 1 24.132267 0L426.666667 573.201067l158.600533-158.600534A17.015467 17.015467 0 0 1 597.333333 409.6z m-256-51.2c-27.904 0-52.343467-10.2912-72.6528-30.600533C248.9344 308.0704 238.933333 283.921067 238.933333 256c0-27.8016 9.949867-52.1728 29.5424-72.448C289.160533 163.549867 313.531733 153.6 341.333333 153.6c27.921067 0 52.0704 10.001067 71.816534 29.7472C433.442133 203.656533 443.733333 228.096 443.733333 256c0 28.023467-10.359467 52.241067-30.805333 72.004267C393.5744 348.040533 369.3568 358.4 341.333333 358.4z m0-170.666667c-18.8928 0-34.850133 6.519467-48.708266 19.950934C279.586133 221.149867 273.066667 237.1072 273.066667 256c0 18.7904 6.4512 34.389333 19.746133 47.650133C306.688 317.525333 322.542933 324.266667 341.333333 324.266667c18.670933 0 34.184533-6.673067 47.4624-20.394667C402.926933 290.184533 409.6 274.670933 409.6 256c0-18.7904-6.741333-34.645333-20.599467-48.520533C375.722667 194.184533 360.123733 187.733333 341.333333 187.733333z" p-id="8444" fill="#1afa29"></path></svg>