<?xml version="1.0" standalone="no"?><!DOCTYPE svg PUBLIC "-//W3C//DTD SVG 1.1//EN" "http://www.w3.org/Graphics/SVG/1.1/DTD/svg11.dtd"><svg t="1652506864839" class="icon" viewBox="0 0 1344 1024" version="1.1" xmlns="http://www.w3.org/2000/svg" p-id="22098" xmlns:xlink="http://www.w3.org/1999/xlink" width="262.5" height="200"><defs><style type="text/css"></style></defs><path d="M1023.581212 395.893297l-27.124902-20.983415c-25.915215 0.558317-52.388748 3.349902-79.094912 8.607387L1023.581212 465.682925 1023.581212 395.893297z" p-id="22099" fill="#d81e06"></path><path d="M232.632094 163.261203 232.632094 23.681947 93.052837 23.681947 93.052837 272.923972 139.579256 233.050832 139.579256 70.208366 186.105675 70.208366 186.105675 203.832241Z" p-id="22100" fill="#d81e06"></path><path d="M0 465.682925 511.790606 69.789628l262.82774 203.32045c10.747603-5.955382 21.681311-11.631605 32.847652-17.075196 7.304648-3.536008 14.655822-6.978963 22.006996-10.282339L511.790606 0 0 395.893297 0 465.682925z" p-id="22101" fill="#d81e06"></path><path d="M1343.217709 309.58679l-207.693933-193.642955-14.981507 106.638552c-84.538503 4.9318-416.969765 42.525147-549.849217 330.523679 208.810567-262.967319 472.150097-228.072505 533.658023-215.510372l-14.190558 100.869276L1343.217709 309.58679z" p-id="22102" fill="#d81e06"></path><path d="M93.052837 461.449021 93.052837 1023.99995 324.754403 1023.99995 324.754403 977.473532 139.579256 977.473532 139.579256 423.762622Z" p-id="22103" fill="#d81e06"></path><path d="M495.599413 604.843444l21.448679-46.526419L372.21135 558.317025l0 465.264187 279.158512 0L651.369862 558.317025l-24.519423 0c-6.653278 7.676859-13.260029 15.58635-19.727202 23.728474L589.024461 604.843444 604.843444 604.843444l0 372.21135L418.737769 977.054794l0-372.21135L495.599413 604.843444z" p-id="22104" fill="#d81e06"></path><path d="M884.327641 977.473532 699.245547 977.473532 699.245547 1023.99995 930.85406 1023.99995 930.85406 459.681017 884.327641 422.506409Z" p-id="22105" fill="#d81e06"></path></svg>