<?xml version="1.0" encoding="iso-8859-1"?>
<!-- Generator: Adobe Illustrator 18.0.0, SVG Export Plug-In . SVG Version: 6.00 Build 0)  -->
<!DOCTYPE svg PUBLIC "-//W3C//DTD SVG 1.1//EN" "http://www.w3.org/Graphics/SVG/1.1/DTD/svg11.dtd">
<svg version="1.1" id="Capa_1" xmlns="http://www.w3.org/2000/svg" xmlns:xlink="http://www.w3.org/1999/xlink" x="0px" y="0px"
	 viewBox="0 0 382.975 382.975" style="enable-background:new 0 0 382.975 382.975;" xml:space="preserve">
<g>
	<g>
		<path style="fill:none;" d="M346.568,24H36.408c-6.842,0-12.407,5.566-12.407,12.409v310.157c0,6.842,5.565,12.409,12.407,12.409
			h310.16c6.842,0,12.406-5.567,12.406-12.409V36.409C358.974,29.566,353.41,24,346.568,24z M183.831,311.307
			c0,6.628-5.373,12-12,12h-67.985c-6.627,0-12-5.372-12-12V71.668c0-6.628,5.373-12,12-12h67.985c6.627,0,12,5.372,12,12V311.307z
			 M291.128,311.307c0,6.628-5.373,12-12,12h-67.984c-6.627,0-12-5.372-12-12V71.668c0-6.628,5.373-12,12-12h67.984
			c6.627,0,12,5.372,12,12V311.307z"/>
		<rect x="115.847" y="83.668" style="fill:#73D0F4;" width="43.985" height="215.639"/>
		<rect x="223.144" y="83.668" style="fill:#73D0F4;" width="43.984" height="215.639"/>
		<path style="fill:#3D6889;" d="M346.568,0H36.408C16.333,0,0.001,16.333,0.001,36.409v310.157
			c0,20.076,16.332,36.409,36.407,36.409h310.16c20.074,0,36.406-16.333,36.406-36.409V36.409C382.974,16.333,366.642,0,346.568,0z
			 M358.974,346.566c0,6.842-5.564,12.409-12.406,12.409H36.408c-6.842,0-12.407-5.567-12.407-12.409V36.409
			C24.001,29.566,29.566,24,36.408,24h310.16c6.842,0,12.406,5.566,12.406,12.409V346.566z"/>
		<path style="fill:#3D6889;" d="M171.831,59.668h-67.985c-6.627,0-12,5.372-12,12v239.639c0,6.628,5.373,12,12,12h67.985
			c6.627,0,12-5.372,12-12V71.668C183.831,65.04,178.458,59.668,171.831,59.668z M159.831,299.307h-43.985V83.668h43.985V299.307z"
			/>
		<path style="fill:#3D6889;" d="M279.128,59.668h-67.984c-6.627,0-12,5.372-12,12v239.639c0,6.628,5.373,12,12,12h67.984
			c6.627,0,12-5.372,12-12V71.668C291.128,65.04,285.755,59.668,279.128,59.668z M267.128,299.307h-43.984V83.668h43.984V299.307z"
			/>
	</g>
</g>
<g>
</g>
<g>
</g>
<g>
</g>
<g>
</g>
<g>
</g>
<g>
</g>
<g>
</g>
<g>
</g>
<g>
</g>
<g>
</g>
<g>
</g>
<g>
</g>
<g>
</g>
<g>
</g>
<g>
</g>
</svg>
