<?xml version="1.0" standalone="no"?><!DOCTYPE svg PUBLIC "-//W3C//DTD SVG 1.1//EN" "http://www.w3.org/Graphics/SVG/1.1/DTD/svg11.dtd"><svg t="1652347983285" class="icon" viewBox="0 0 1024 1024" version="1.1" xmlns="http://www.w3.org/2000/svg" p-id="29800" xmlns:xlink="http://www.w3.org/1999/xlink" width="200" height="200"><defs><style type="text/css"></style></defs><path d="M678.977348 229.073105h317.678759c15.101941 0 27.343893 12.241952 27.343893 27.343893s-12.241952 27.343893-27.343893 27.343894H678.977348v-54.687787z" fill="#FFB655" p-id="29801"></path><path d="M753.199058 229.073105H678.977348v54.685787h99.351612c-21.151917-10.28196-26.391897-34.943864-25.129902-54.685787z" opacity=".1" p-id="29802"></path><path d="M221.087136 910.240444c22.771911 0 42.473834-15.843938 47.361815-38.083851l47.189816-214.773161h-56.859778l-82.00968 184.687279c-14.237944 32.063875 9.233964 68.169734 44.317827 68.169733z" fill="#FFB655" p-id="29803"></path><path d="M720.781184 250.639021c-2.951988-74.28171-61.851758-133.481479-136.119468-136.739466-81.709681-3.583986-149.079418 61.597759-149.079417 142.515443 0 41.565838-7.331971 125.087511-85.903665 167.479346a256.572998 256.572998 0 0 0-9.463963 4.759982c-0.437998 0.203999-0.845997 0.423998-1.287995 0.623997l0.082-0.008c-72.249718 38.47585-124.081515 110.237569-134.965473 194.837239a160.075375 160.075375 0 0 1-25.6799 68.515732l-98.605615 147.531424c-20.007922 29.933883 1.449994 70.081726 37.453854 70.081726a45.051824 45.051824 0 0 0 41.173839-26.765895l100.393608-226.091117h56.859778l-42.075836 191.495252c-6.925973 31.519877 17.071933 61.36376 49.345808 61.36376 27.993891 0 50.649802-22.761911 50.521802-50.753801l-0.835996-181.76729c-0.052-11.215956 9.025965-20.335921 20.24392-20.335921h68.827732c120.019531 0 217.313151-97.29362 217.313151-217.313151v-40.99384c0-11.353956 1.485994-30.107882 24.611904-74.503709 0.285999-0.525998 0.547998-1.067996 0.827996-1.597994 0.299999-0.571998 0.561998-1.095996 0.867997-1.675993l-0.01-0.002c10.777958-21.065918 16.515935-45.137824 15.503939-70.655724z" fill="#C27C59" p-id="29804"></path><path d="M425.07834 657.381432h36.585857c120.019531 0 217.313151-97.29362 217.313151-217.313151v-40.99384c0-2.833989 0.094-6.127976 0.591997-10.16596-100.415608-1.603994-249.417026 5.00798-254.491005 268.472951z" fill="#FFDAB5" p-id="29805"></path><path d="M501.570041 653.711446c-122.79352-25.6199-148.627419-150.149413-144.029438-234.359084a166.29735 166.29735 0 0 1-7.865969 4.543982 256.572998 256.572998 0 0 0-9.463963 4.759982c-0.437998 0.203999-0.845997 0.423998-1.287995 0.623997l0.082-0.008c-72.249718 38.47585-124.081515 110.237569-134.965473 194.837239a160.075375 160.075375 0 0 1-25.6799 68.515732L79.753688 840.156718c-20.007922 29.933883 1.449994 70.081726 37.453854 70.081726a45.051824 45.051824 0 0 0 41.173839-26.765895l100.393608-226.091117h56.859778L273.558931 848.876684c-6.925973 31.519877 17.071933 61.36376 49.345808 61.36376 27.993891 0 50.649802-22.761911 50.521802-50.753801l-0.835996-181.76729c-0.052-11.215956 9.025965-20.335921 20.24392-20.335921h68.827732a218.619146 218.619146 0 0 0 39.907844-3.671986z" opacity=".1" p-id="29806"></path><path d="M554.259835 269.120949a42.079836 33.507869 0 1 0 84.159671 0 42.079836 33.507869 0 1 0-84.159671 0Z" fill="#FF6E6E" p-id="29807"></path><path d="M655.47344 248.653029a14.999941 14.999941 0 0 1-14.999942-14.999942c0-8.033969-6.535974-14.569943-14.569943-14.569943s-14.569943 6.535974-14.569943 14.569943a14.999941 14.999941 0 0 1-29.999883 0c0-24.575904 19.993922-44.569826 44.569826-44.569826s44.569826 19.993922 44.569826 44.569826a14.999941 14.999941 0 0 1-14.999941 14.999942z" fill="#414B58" p-id="29808"></path><path d="M461.334198 358.4766c-115.463549-77.199698-308.128796-90.139648-424.90434-89.323651-29.943883 0.209999-46.939817 34.211866-29.245886 58.369772 87.809657 119.899532 254.781005 219.131144 388.974481 220.255139 59.073769 0.493998 108.205577-47.511814 107.38158-106.581583-0.473998-33.849868-16.949934-63.831751-42.205835-82.719677z" fill="#FFB655" p-id="29809"></path><path d="M127.551502 271.42694a1430.97441 1430.97441 0 0 0-91.123644-2.271991c-29.943883 0.209999-46.939817 34.211866-29.245886 58.369772 87.809657 119.899532 254.781005 219.131144 388.974481 220.255139h0.011999c-99.93161-10.695958-233.03309-186.617271-268.61695-276.35292z" opacity=".1" p-id="29810"></path><path d="M226.301116 361.370588a15.003941 15.003941 0 0 0-18.583927-10.23196c-19.573924 5.673978-84.323671 32.359874-126.823505 56.609779a607.257628 607.257628 0 0 0 24.491904 20.66192c37.783852-20.223921 91.449643-42.881832 110.683568-48.455811a15.001941 15.001941 0 0 0 10.23196-18.583928z m-103.755595-36.537857a14.999941 14.999941 0 0 0-17.181933-12.441951c-16.693935 2.66999-54.657786 14.957942-87.369658 29.269885a492.538076 492.538076 0 0 0 20.33192 23.953907c27.861891-11.539955 58.543771-21.483916 71.77772-23.601908a14.999941 14.999941 0 0 0 12.441951-17.179933z m311.186785 110.897567a15.003941 15.003941 0 0 0-20.019922-7.015973c-1.331995 0.641997-97.151621 47.103816-160.409373 87.329659a497.338057 497.338057 0 0 0 35.891859 13.083949 1362.174679 1362.174679 0 0 1 30.417882-17.485932c46.05182-25.741899 92.927637-49.075808 107.103581-55.893781a14.997941 14.997941 0 0 0 7.015973-20.017922z m-103.725595-37.347854a14.999941 14.999941 0 0 0-19.459924-8.445967c-16.117937 6.361975-100.661607 44.869825-151.369409 77.023699a616.90759 616.90759 0 0 0 28.911887 17.393932c44.079828-25.885899 109.789571-57.163777 133.473479-66.51174a14.999941 14.999941 0 0 0 8.443967-19.459924z" opacity=".08" p-id="29811"></path></svg>