<?xml version="1.0" standalone="no"?><!DOCTYPE svg PUBLIC "-//W3C//DTD SVG 1.1//EN" "http://www.w3.org/Graphics/SVG/1.1/DTD/svg11.dtd"><svg t="1654353872967" class="icon" viewBox="0 0 1024 1024" version="1.1" xmlns="http://www.w3.org/2000/svg" p-id="3915" xmlns:xlink="http://www.w3.org/1999/xlink" width="200" height="200"><defs><style type="text/css"></style></defs><path d="M505.35 147.21l-116-46.81c-23.85-8.97-50.63 1.56-61.98 24.38-10 22.08-0.21 48.08 21.86 58.08 0.56 0.25 1.12 0.49 1.69 0.72-158.5 57.5-260.66 211.99-251.52 380.34 16.06 168.78 138.95 308.02 304.42 344.94 4.16 0.97 8.41 1.49 12.68 1.56 23.53 0.59 43.93-16.16 47.93-39.35 2.69-23.17-12.61-44.61-35.4-49.59-128.49-28.68-223.06-138.11-232.83-269.4-4.21-131.1 78.96-249.11 203.82-289.26l-7.66 16.68a42.41 42.41 0 0 0-0.39 34.62 46.71 46.71 0 0 0 25.99 24.67 50.08 50.08 0 0 0 18.87 3.75c18.75 0.42 36.08-9.95 44.57-26.67l49.25-109.23c9.8-22.43-0.45-48.56-22.89-58.36-0.77-0.33-1.54-0.65-2.32-0.94l-0.09-0.13z m421.93 387.02c1.15-178.46-119.58-334.7-292.57-378.59a50.955 50.955 0 0 0-48.42 9.46 43.451 43.451 0 0 0-14.24 44.28 46.92 46.92 0 0 0 34.82 32.87c119.33 30.5 207.8 130.99 222.94 253.22C840.5 617.2 773.7 732.57 662.8 783.9c11.98-21.07 4.62-47.86-16.44-59.85-0.87-0.5-1.76-0.96-2.67-1.4-23.16-12.06-51.69-4.29-65.54 17.85l-65.78 100.55a42.475 42.475 0 0 0-6.1 34.13 45.245 45.245 0 0 0 21.94 28.09l107.28 62.42c15 10.42 34.42 12.05 50.96 4.29 22.33-9.42 32.81-35.15 23.39-57.49a43.908 43.908 0 0 0-24.27-23.75l-14.63-8.58c147.86-52.6 249.2-189.43 256.39-346.21l-0.05 0.28z" fill="#409EFF" p-id="3916"></path></svg>