<?xml version="1.0" standalone="no"?><!DOCTYPE svg PUBLIC "-//W3C//DTD SVG 1.1//EN" "http://www.w3.org/Graphics/SVG/1.1/DTD/svg11.dtd"><svg t="1652423820898" class="icon" viewBox="0 0 1024 1024" version="1.1" xmlns="http://www.w3.org/2000/svg" p-id="11198" xmlns:xlink="http://www.w3.org/1999/xlink" width="200" height="200"><defs><style type="text/css"></style></defs><path d="M682.666667 1024H341.333333c-10.24 0-17.066667-6.826667-17.066666-17.066667V477.866667H68.266667c-6.826667 0-13.653333-3.413333-17.066667-10.24-3.413333-6.826667 0-13.653333 3.413333-17.066667l443.733334-443.733333c6.826667-6.826667 17.066667-6.826667 23.893333 0l443.733333 443.733333c3.413333 3.413333 6.826667 13.653333 3.413334 17.066667 0 6.826667-6.826667 10.24-13.653334 10.24h-256v529.066666c0 10.24-6.826667 17.066667-17.066666 17.066667z m-324.266667-34.133333h307.2V460.8c0-10.24 6.826667-17.066667 17.066667-17.066667h232.106666L512 40.96 109.226667 443.733333H341.333333c10.24 0 17.066667 6.826667 17.066667 17.066667V989.866667z" fill="#231F20" p-id="11199"></path></svg>